PERFORMER "London Elektricity"
TITLE "Essential Mix (2008-11-08) [TMB]"
FILE "Essential Mix_London Elektricity_2008_11_08.mp3" MP3
 TRACK 01 AUDIO
   PERFORMER "Essential Mix"
   TITLE "Intro"
   INDEX 01 00:00:00
 TRACK 02 AUDIO
   PERFORMER "London Elektricity"
   TITLE "Fast Soul Music"
   INDEX 01 02:48:27
 TRACK 03 AUDIO
   PERFORMER "Makoto + T_Ak"
   TITLE "Voyager"
   INDEX 01 04:24:00
 TRACK 04 AUDIO
   PERFORMER "Klute"
   TITLE "Trust Me"
   INDEX 01 06:20:10
 TRACK 05 AUDIO
   PERFORMER "London Elektricity"
   TITLE "Bare Religion"
   INDEX 01 09:09:11
 TRACK 06 AUDIO
   PERFORMER "Logistics"
   TITLE "Cosmonaught"
   INDEX 01 11:16:04
 TRACK 07 AUDIO
   PERFORMER "Logistics"
   TITLE "Kaleidoscope"
   INDEX 01 13:01:25
 TRACK 08 AUDIO
   PERFORMER "Snow Patrol"
   TITLE "Open Your Eyes (D&B Mix)"
   INDEX 01 15:29:24
 TRACK 09 AUDIO
   PERFORMER "Randomer"
   TITLE "Blind"
   INDEX 01 16:54:08
 TRACK 10 AUDIO
   PERFORMER "Martsman"
   TITLE "Sir Gordon Jumpmeister Lll"
   INDEX 01 18:39:21
 TRACK 11 AUDIO
   PERFORMER "Randomer"
   TITLE "Synth Geek"
   INDEX 01 20:04:05
 TRACK 12 AUDIO
   PERFORMER "Q Project"
   TITLE "Credit Crunch"
   INDEX 01 22:52:27
 TRACK 13 AUDIO
   PERFORMER "Danny Byrd"
   TITLE "Red Mist"
   INDEX 01 23:56:04
 TRACK 14 AUDIO
   PERFORMER "London Elektricity"
   TITLE "The Great Drum & Bass Swindle (Logistics Remix)"
   INDEX 01 26:23:18
 TRACK 15 AUDIO
   PERFORMER "London Elektricity"
   TITLE "Just One Second"
   INDEX 01 28:30:02
 TRACK 16 AUDIO
   PERFORMER "Mistabishi"
   TITLE "Greed"
   INDEX 01 30:45:28
 TRACK 17 AUDIO
   PERFORMER "Furney & Tayla"
   TITLE "Stand Still"
   INDEX 01 33:04:03
 TRACK 18 AUDIO
   PERFORMER "London Elektricity"
   TITLE "Uska"
   INDEX 01 34:28:13
 TRACK 19 AUDIO
   PERFORMER "Kanye West"
   TITLE "Flashlight (D&B Mix)"
   INDEX 01 36:55:28
 TRACK 20 AUDIO
   PERFORMER "N*E*R*D"
   TITLE "Nerdstep"
   INDEX 01 40:05:14
 TRACK 21 AUDIO
   PERFORMER "Nu:Tone"
   TITLE "Balaclava"
   INDEX 01 43:36:04
 TRACK 22 AUDIO
   PERFORMER "London Elektricity"
   TITLE "Remember The Future (High Contrast Remix)"
   INDEX 01 45:42:19
 TRACK 23 AUDIO
   PERFORMER "Adele"
   TITLE "Hometown Glory (High Contrast Remix)"
   INDEX 01 47:48:28
 TRACK 24 AUDIO
   PERFORMER "The Brookes Bros"
   TITLE "She Tears You Down"
   INDEX 01 49:34:09
 TRACK 25 AUDIO
   PERFORMER "Mistabishi"
   TITLE "No Matter What"
   INDEX 01 51:30:03
 TRACK 26 AUDIO
   PERFORMER "Commix"
   TITLE "Bear Music"
   INDEX 01 52:43:18
 TRACK 27 AUDIO
   PERFORMER "Chase & Status"
   TITLE "Music Club"
   INDEX 01 54:28:17
 TRACK 28 AUDIO
   PERFORMER "London Elektricity"
   TITLE "All Hell Is Breaking Loose"
   INDEX 01 56:34:16
 TRACK 29 AUDIO
   PERFORMER "Commix"
   TITLE "Rackit"
   INDEX 01 60:12:09
 TRACK 30 AUDIO
   PERFORMER "Noisia"
   TITLE "Diplodocus (Nu:Tone Edit)"
   INDEX 01 61:36:11
 TRACK 31 AUDIO
   PERFORMER "Logistics"
   TITLE "Jungle Music"
   INDEX 01 63:00:13
 TRACK 32 AUDIO
   PERFORMER "London Elektricity"
   TITLE "This Dark Matter (Nu:Tone Remix)"
   INDEX 01 64:45:18
 TRACK 33 AUDIO
   PERFORMER "Muffler"
   TITLE "Hear Me Scream"
   INDEX 01 67:47:07
 TRACK 34 AUDIO
   PERFORMER "Eric Prydz"
   TITLE "Pjanoo (High Contrast Remix)"
   INDEX 01 71:14:16
 TRACK 35 AUDIO
   PERFORMER "Nu:Tone"
   TITLE "System (Matrix + Futurebound Remix)"
   INDEX 01 73:20:21
 TRACK 36 AUDIO
   PERFORMER "Shinichi Osawa"
   TITLE "Star Guitar (Brookes Bros Remix)"
   INDEX 01 75:26:28
 TRACK 37 AUDIO
   PERFORMER "Sigma"
   TITLE "Paint It Black"
   INDEX 01 78:57:10
 TRACK 38 AUDIO
   PERFORMER "London Elektricity"
   TITLE "Different Drum (Photek Remix)"
   INDEX 01 80:21:10
 TRACK 39 AUDIO
   PERFORMER "High Contrast"
   TITLE "If We Ever"
   INDEX 01 82:27:13
 TRACK 40 AUDIO
   PERFORMER "London Elektricity"
   TITLE "Billion Dollar Gravy"
   INDEX 01 85:57:17
 TRACK 41 AUDIO
   PERFORMER "Danny Byrd"
   TITLE "Shockout"
   INDEX 01 88:03:16
 TRACK 42 AUDIO
   PERFORMER "Chase & Status"
   TITLE "Street Life"
   INDEX 01 89:14:07
 TRACK 43 AUDIO
   PERFORMER "London Elektricity"
   TITLE "South Eastern Dream"
   INDEX 01 90:38:04
 TRACK 44 AUDIO
   PERFORMER "Trisector"
   TITLE "Morning Rain"
   INDEX 01 92:23:02
 TRACK 45 AUDIO
   PERFORMER "Danny Breaks"
   TITLE "Volume 1 (Logistics Remix)"
   INDEX 01 94:07:29
 TRACK 46 AUDIO
   PERFORMER "Apex"
   TITLE "Emo Funk"
   INDEX 01 96:34:20
 TRACK 47 AUDIO
   PERFORMER "Roni Size"
   TITLE "Swings & Roundabouts"
   INDEX 01 99:22:08
 TRACK 48 AUDIO
   PERFORMER "Logistics"
   TITLE "Take Be To The Bridge"
   INDEX 01 100:46:02
 TRACK 49 AUDIO
   PERFORMER "Roni Size & DJ Die"
   TITLE "Its A Jazz Thing (Utah Jazz Remix)"
   INDEX 01 101:48:28
 TRACK 50 AUDIO
   PERFORMER "Matrix & Futurebound"
   TITLE "American Beauty"
   INDEX 01 102:30:25
 TRACK 51 AUDIO
   PERFORMER "Icicle"
   TITLE "So Close"
   INDEX 01 105:44:07
 TRACK 52 AUDIO
   PERFORMER "The Streets"
   TITLE "Has It Come To This (High Contrast Mix)"
   INDEX 01 107:39:03
 TRACK 53 AUDIO
   PERFORMER "DJ Zinc"
   TITLE "Reachout Remix"
   INDEX 01 109:39:23
 TRACK 54 AUDIO
   PERFORMER "Lenny Fontana"
   TITLE "Spread Love (Nu:Tone Remix)"
   INDEX 01 111:32:28
 TRACK 55 AUDIO
   PERFORMER "MJ Cole & Rodney P"
   TITLE "Tuff Like Me (Shy Fx & T-Power Remix)"
   INDEX 01 114:20:04
 TRACK 56 AUDIO
   PERFORMER "TC"
   TITLE "Game Over"
   INDEX 01 115:54:02
 TRACK 57 AUDIO
   PERFORMER "Subfocus"
   TITLE "Druggy"
   INDEX 01 116:56:20
 TRACK 58 AUDIO
   PERFORMER "Apex & Ayah"
   TITLE "The Space Between"
   INDEX 01 117:38:12
